<svg width="89" height="17" viewBox="0 0 89 17" fill="none" xmlns="http://www.w3.org/2000/svg">
<path d="M3.30256 16H0.490057L5.6108 1.45455H8.86364L13.9915 16H11.179L7.29403 4.4375H7.1804L3.30256 16ZM3.39489 10.2969H11.0653V12.4134H3.39489V10.2969Z" fill="black"/>
<path d="M28.3576 6.36222H25.7013C25.6256 5.92661 25.4859 5.54072 25.2823 5.20455C25.0787 4.86364 24.8254 4.57481 24.5224 4.33807C24.2193 4.10133 23.8737 3.92377 23.4854 3.8054C23.1019 3.68229 22.6876 3.62074 22.2425 3.62074C21.4518 3.62074 20.7511 3.8196 20.1403 4.21733C19.5295 4.61032 19.0513 5.18797 18.7056 5.95028C18.36 6.70786 18.1871 7.63352 18.1871 8.72727C18.1871 9.83996 18.36 10.7775 18.7056 11.5398C19.056 12.2973 19.5342 12.8703 20.1403 13.2585C20.7511 13.642 21.4495 13.8338 22.2354 13.8338C22.671 13.8338 23.0782 13.777 23.457 13.6634C23.8406 13.545 24.1838 13.3722 24.4869 13.1449C24.7946 12.9176 25.0527 12.6383 25.261 12.3068C25.4741 11.9754 25.6209 11.5966 25.7013 11.1705L28.3576 11.1847C28.2582 11.8759 28.0427 12.5246 27.7113 13.1307C27.3846 13.7367 26.9561 14.2718 26.4258 14.7358C25.8955 15.1951 25.2752 15.5549 24.565 15.8153C23.8548 16.071 23.0664 16.1989 22.1999 16.1989C20.9215 16.1989 19.7804 15.9029 18.7766 15.3111C17.7728 14.7192 16.9821 13.8646 16.4045 12.7472C15.8268 11.6297 15.538 10.2898 15.538 8.72727C15.538 7.16004 15.8292 5.82008 16.4116 4.70739C16.994 3.58996 17.7871 2.73532 18.7908 2.14347C19.7946 1.55161 20.931 1.25568 22.1999 1.25568C23.0096 1.25568 23.7624 1.36932 24.4585 1.59659C25.1545 1.82386 25.7747 2.15767 26.3192 2.59801C26.8638 3.03362 27.3112 3.56866 27.6616 4.20312C28.0167 4.83286 28.2487 5.55256 28.3576 6.36222ZM33.7962 16.2202C33.1049 16.2202 32.4822 16.0971 31.9283 15.8509C31.379 15.5999 30.9434 15.2306 30.6214 14.7429C30.3042 14.2552 30.1456 13.6539 30.1456 12.9389C30.1456 12.3234 30.2592 11.8144 30.4865 11.4119C30.7138 11.0095 31.0239 10.6875 31.4169 10.446C31.8099 10.2045 32.2526 10.0223 32.745 9.89915C33.2422 9.77131 33.7559 9.67898 34.2862 9.62216C34.9254 9.55587 35.4439 9.49669 35.8416 9.4446C36.2393 9.38778 36.5282 9.30256 36.7081 9.18892C36.8928 9.07055 36.9851 8.88826 36.9851 8.64205V8.59943C36.9851 8.06439 36.8265 7.65009 36.5092 7.35653C36.192 7.06297 35.7351 6.91619 35.1385 6.91619C34.5088 6.91619 34.0092 7.0535 33.6399 7.32812C33.2753 7.60275 33.0291 7.92708 32.9013 8.30114L30.5007 7.96023C30.6901 7.29735 31.0026 6.74337 31.4382 6.2983C31.8738 5.84848 32.4065 5.51231 33.0362 5.28977C33.666 5.0625 34.362 4.94886 35.1243 4.94886C35.6499 4.94886 36.1731 5.01042 36.6939 5.13352C37.2147 5.25663 37.6906 5.46023 38.1214 5.74432C38.5523 6.02367 38.898 6.40483 39.1584 6.88778C39.4235 7.37074 39.5561 7.97443 39.5561 8.69886V16H37.0845V14.5014H36.9993C36.843 14.8045 36.6229 15.0885 36.3388 15.3537C36.0594 15.6141 35.7067 15.8248 35.2805 15.9858C34.8591 16.142 34.3643 16.2202 33.7962 16.2202ZM34.4638 14.331C34.9799 14.331 35.4273 14.2292 35.8061 14.0256C36.1849 13.8172 36.4761 13.5426 36.6797 13.2017C36.888 12.8608 36.9922 12.4891 36.9922 12.0866V10.8011C36.9117 10.8674 36.7744 10.929 36.5803 10.9858C36.3909 11.0426 36.1778 11.0923 35.9411 11.1349C35.7043 11.1776 35.4699 11.2154 35.2379 11.2486C35.0059 11.2817 34.8047 11.3101 34.6342 11.3338C34.2507 11.3859 33.9074 11.4711 33.6044 11.5895C33.3014 11.7079 33.0623 11.8736 32.8871 12.0866C32.7119 12.295 32.6243 12.5649 32.6243 12.8963C32.6243 13.3698 32.7971 13.7273 33.1428 13.9688C33.4884 14.2102 33.9287 14.331 34.4638 14.331ZM44.7124 9.60795V16H42.1413V5.09091H44.5987V6.9446H44.7266C44.9775 6.33381 45.3776 5.84848 45.9268 5.48864C46.4808 5.12879 47.165 4.94886 47.9794 4.94886C48.7322 4.94886 49.388 5.10985 49.9467 5.43182C50.5102 5.75379 50.9458 6.22017 51.2536 6.83097C51.5661 7.44176 51.7199 8.18276 51.7152 9.05398V16H49.1442V9.4517C49.1442 8.72254 48.9548 8.15199 48.576 7.74006C48.2019 7.32812 47.6835 7.12216 47.0206 7.12216C46.5708 7.12216 46.1707 7.22159 45.8203 7.42045C45.4747 7.61458 45.2024 7.89631 45.0036 8.26562C44.8094 8.63494 44.7124 9.08239 44.7124 9.60795ZM59.7763 5.09091V7.07955H53.505V5.09091H59.7763ZM55.0533 2.47727H57.6243V12.7188C57.6243 13.0644 57.6764 13.3295 57.7805 13.5142C57.8894 13.6941 58.0315 13.8172 58.2067 13.8835C58.3819 13.9498 58.576 13.983 58.7891 13.983C58.95 13.983 59.0968 13.9711 59.2294 13.9474C59.3667 13.9238 59.4709 13.9025 59.5419 13.8835L59.9751 15.8935C59.8378 15.9408 59.6413 15.9929 59.3857 16.0497C59.1347 16.1065 58.8269 16.1397 58.4624 16.1491C57.8184 16.1681 57.2384 16.071 56.7223 15.858C56.2062 15.6402 55.7966 15.304 55.4936 14.8494C55.1953 14.3949 55.0485 13.8267 55.0533 13.1449V2.47727ZM61.9265 16V5.09091H64.4975V16H61.9265ZM63.2191 3.54261C62.8119 3.54261 62.4615 3.40767 62.168 3.13778C61.8744 2.86316 61.7276 2.53409 61.7276 2.15057C61.7276 1.76231 61.8744 1.43324 62.168 1.16335C62.4615 0.88873 62.8119 0.75142 63.2191 0.75142C63.631 0.75142 63.9814 0.88873 64.2702 1.16335C64.5638 1.43324 64.7106 1.76231 64.7106 2.15057C64.7106 2.53409 64.5638 2.86316 64.2702 3.13778C63.9814 3.40767 63.631 3.54261 63.2191 3.54261ZM69.7124 9.60795V16H67.1413V5.09091H69.5987V6.9446H69.7266C69.9775 6.33381 70.3776 5.84848 70.9268 5.48864C71.4808 5.12879 72.165 4.94886 72.9794 4.94886C73.7322 4.94886 74.388 5.10985 74.9467 5.43182C75.5102 5.75379 75.9458 6.22017 76.2536 6.83097C76.5661 7.44176 76.7199 8.18276 76.7152 9.05398V16H74.1442V9.4517C74.1442 8.72254 73.9548 8.15199 73.576 7.74006C73.2019 7.32812 72.6835 7.12216 72.0206 7.12216C71.5708 7.12216 71.1707 7.22159 70.8203 7.42045C70.4747 7.61458 70.2024 7.89631 70.0036 8.26562C69.8094 8.63494 69.7124 9.08239 69.7124 9.60795ZM82.468 16.2202C81.7768 16.2202 81.1541 16.0971 80.6001 15.8509C80.0509 15.5999 79.6153 15.2306 79.2933 14.7429C78.9761 14.2552 78.8175 13.6539 78.8175 12.9389C78.8175 12.3234 78.9311 11.8144 79.1584 11.4119C79.3857 11.0095 79.6958 10.6875 80.0888 10.446C80.4818 10.2045 80.9245 10.0223 81.4169 9.89915C81.9141 9.77131 82.4278 9.67898 82.9581 9.62216C83.5973 9.55587 84.1158 9.49669 84.5135 9.4446C84.9112 9.38778 85.2 9.30256 85.38 9.18892C85.5646 9.07055 85.657 8.88826 85.657 8.64205V8.59943C85.657 8.06439 85.4983 7.65009 85.1811 7.35653C84.8639 7.06297 84.407 6.91619 83.8104 6.91619C83.1806 6.91619 82.6811 7.0535 82.3118 7.32812C81.9472 7.60275 81.701 7.92708 81.5732 8.30114L79.1726 7.96023C79.362 7.29735 79.6745 6.74337 80.1101 6.2983C80.5457 5.84848 81.0784 5.51231 81.7081 5.28977C82.3378 5.0625 83.0339 4.94886 83.7962 4.94886C84.3217 4.94886 84.8449 5.01042 85.3658 5.13352C85.8866 5.25663 86.3625 5.46023 86.7933 5.74432C87.2242 6.02367 87.5698 6.40483 87.8303 6.88778C88.0954 7.37074 88.228 7.97443 88.228 8.69886V16H85.7564V14.5014H85.6712C85.5149 14.8045 85.2947 15.0885 85.0107 15.3537C84.7313 15.6141 84.3786 15.8248 83.9524 15.9858C83.531 16.142 83.0362 16.2202 82.468 16.2202ZM83.1357 14.331C83.6518 14.331 84.0992 14.2292 84.478 14.0256C84.8568 13.8172 85.148 13.5426 85.3516 13.2017C85.5599 12.8608 85.6641 12.4891 85.6641 12.0866V10.8011C85.5836 10.8674 85.4463 10.929 85.2521 10.9858C85.0627 11.0426 84.8497 11.0923 84.6129 11.1349C84.3762 11.1776 84.1418 11.2154 83.9098 11.2486C83.6778 11.2817 83.4766 11.3101 83.3061 11.3338C82.9226 11.3859 82.5793 11.4711 82.2763 11.5895C81.9732 11.7079 81.7341 11.8736 81.5589 12.0866C81.3838 12.295 81.2962 12.5649 81.2962 12.8963C81.2962 13.3698 81.469 13.7273 81.8146 13.9688C82.1603 14.2102 82.6006 14.331 83.1357 14.331Z" fill="#1AD888"/>
</svg>
